<mxfile host="app.diagrams.net" modified="2024-01-23T14:40:19.633Z" agent="Mozilla/5.0 (Macintosh; Intel Mac OS X 10_15_7) AppleWebKit/537.36 (KHTML, like Gecko) Chrome/120.0.0.0 Safari/537.36" etag="nKLZfw7qnAm4qVqfZyg5" version="22.1.22" type="github">
  <diagram name="Page-1" id="JiydAraUhOQ0N23eVqzQ">
    <mxGraphModel dx="1194" dy="756" grid="1" gridSize="10" guides="1" tooltips="1" connect="1" arrows="1" fold="1" page="1" pageScale="1" pageWidth="850" pageHeight="1100" math="0" shadow="0">
      <root>
        <mxCell id="0" />
        <mxCell id="1" parent="0" />
        <mxCell id="JNl-7g5QmU6bNraVdxka-4" style="edgeStyle=orthogonalEdgeStyle;rounded=0;orthogonalLoop=1;jettySize=auto;html=1;entryX=0.5;entryY=0;entryDx=0;entryDy=0;" edge="1" parent="1" source="JNl-7g5QmU6bNraVdxka-1" target="JNl-7g5QmU6bNraVdxka-3">
          <mxGeometry relative="1" as="geometry" />
        </mxCell>
        <mxCell id="JNl-7g5QmU6bNraVdxka-1" value="&lt;font style=&quot;font-size: 18px;&quot;&gt;start&lt;/font&gt;" style="rounded=1;whiteSpace=wrap;html=1;" vertex="1" parent="1">
          <mxGeometry x="290" y="90" width="120" height="60" as="geometry" />
        </mxCell>
        <mxCell id="JNl-7g5QmU6bNraVdxka-6" value="" style="edgeStyle=orthogonalEdgeStyle;rounded=0;orthogonalLoop=1;jettySize=auto;html=1;" edge="1" parent="1" source="JNl-7g5QmU6bNraVdxka-3" target="JNl-7g5QmU6bNraVdxka-5">
          <mxGeometry relative="1" as="geometry" />
        </mxCell>
        <mxCell id="JNl-7g5QmU6bNraVdxka-3" value="&lt;font size=&quot;3&quot;&gt;pick a letter&lt;/font&gt;" style="rounded=1;whiteSpace=wrap;html=1;" vertex="1" parent="1">
          <mxGeometry x="290" y="220" width="120" height="60" as="geometry" />
        </mxCell>
        <mxCell id="JNl-7g5QmU6bNraVdxka-8" style="edgeStyle=orthogonalEdgeStyle;rounded=0;orthogonalLoop=1;jettySize=auto;html=1;entryX=0.5;entryY=0;entryDx=0;entryDy=0;" edge="1" parent="1" source="JNl-7g5QmU6bNraVdxka-5" target="JNl-7g5QmU6bNraVdxka-7">
          <mxGeometry relative="1" as="geometry" />
        </mxCell>
        <mxCell id="JNl-7g5QmU6bNraVdxka-9" value="&lt;font style=&quot;font-size: 18px;&quot;&gt;YES&lt;/font&gt;" style="edgeLabel;html=1;align=center;verticalAlign=middle;resizable=0;points=[];" vertex="1" connectable="0" parent="JNl-7g5QmU6bNraVdxka-8">
          <mxGeometry x="0.1524" relative="1" as="geometry">
            <mxPoint as="offset" />
          </mxGeometry>
        </mxCell>
        <mxCell id="JNl-7g5QmU6bNraVdxka-12" style="edgeStyle=orthogonalEdgeStyle;rounded=0;orthogonalLoop=1;jettySize=auto;html=1;entryX=0.5;entryY=0;entryDx=0;entryDy=0;" edge="1" parent="1" source="JNl-7g5QmU6bNraVdxka-5" target="JNl-7g5QmU6bNraVdxka-11">
          <mxGeometry relative="1" as="geometry">
            <Array as="points">
              <mxPoint x="350" y="430" />
              <mxPoint x="480" y="430" />
            </Array>
          </mxGeometry>
        </mxCell>
        <mxCell id="JNl-7g5QmU6bNraVdxka-13" value="&lt;font style=&quot;font-size: 18px;&quot;&gt;NO&lt;/font&gt;" style="edgeLabel;html=1;align=center;verticalAlign=middle;resizable=0;points=[];" vertex="1" connectable="0" parent="JNl-7g5QmU6bNraVdxka-12">
          <mxGeometry x="-0.0609" y="-2" relative="1" as="geometry">
            <mxPoint as="offset" />
          </mxGeometry>
        </mxCell>
        <mxCell id="JNl-7g5QmU6bNraVdxka-5" value="check if letter is in the target word" style="rounded=1;whiteSpace=wrap;html=1;" vertex="1" parent="1">
          <mxGeometry x="290" y="320" width="120" height="60" as="geometry" />
        </mxCell>
        <mxCell id="JNl-7g5QmU6bNraVdxka-7" value="" style="rounded=1;whiteSpace=wrap;html=1;" vertex="1" parent="1">
          <mxGeometry x="170" y="480" width="120" height="60" as="geometry" />
        </mxCell>
        <mxCell id="JNl-7g5QmU6bNraVdxka-11" value="" style="rounded=1;whiteSpace=wrap;html=1;" vertex="1" parent="1">
          <mxGeometry x="420" y="480" width="120" height="60" as="geometry" />
        </mxCell>
      </root>
    </mxGraphModel>
  </diagram>
</mxfile>
